Rubik-LightItalic.ufo
<glyph name="parenright" format="1">
  <advance width="317"/>
  <unicode hex="0029"/>
  <outline>
    <contour>
      <point x="147" y="776" type="curve" smooth="yes" name="hr00"/>
      <point x="135" y="776"/>
      <point x="123" y="766"/>
      <point x="121" y="754" type="curve" smooth="yes"/>
      <point x="118" y="740" type="line" smooth="yes"/>
      <point x="115" y="728"/>
      <point x="123" y="718"/>
      <point x="132" y="718" type="curve" smooth="yes"/>
      <point x="244" y="718"/>
      <point x="264" y="625"/>
      <point x="197" y="308" type="curve" smooth="yes"/>
      <point x="129" y="-9"/>
      <point x="70" y="-101"/>
      <point x="-42" y="-101" type="curve" smooth="yes"/>
      <point x="-51" y="-101"/>
      <point x="-63" y="-111"/>
      <point x="-66" y="-123" type="curve" smooth="yes"/>
      <point x="-69" y="-137" type="line" smooth="yes"/>
      <point x="-71" y="-149"/>
      <point x="-63" y="-159"/>
      <point x="-51" y="-159" type="curve" smooth="yes"/>
      <point x="128" y="-159"/>
      <point x="187" y="-15"/>
      <point x="256" y="308" type="curve" smooth="yes"/>
      <point x="324" y="631"/>
      <point x="306" y="776"/>
    </contour>
  </outline>
</glyph>
<glyph name="comma" format="1">
  <advance width="237"/>
  <unicode hex="002C"/>
  <outline>
    <contour>
      <point x="-11" y="-54" type="line" smooth="yes" name="hr00"/>
      <point x="-16" y="-66"/>
      <point x="-12" y="-75"/>
      <point x="-1" y="-75" type="curve"/>
      <point x="16" y="-75" type="line"/>
      <point x="31" y="-75"/>
      <point x="38" y="-68"/>
      <point x="46" y="-54" type="curve" smooth="yes"/>
      <point x="119" y="73" type="line" smooth="yes"/>
      <point x="125" y="83"/>
      <point x="118" y="93"/>
      <point x="109" y="93" type="curve"/>
      <point x="64" y="93" type="line"/>
      <point x="48" y="93"/>
      <point x="40" y="82"/>
      <point x="34" y="66" type="curve" smooth="yes"/>
    </contour>
  </outline>
</glyph>
<glyph name="afii10027" format="1">
  <advance width="685"/>
  <unicode hex="0419"/>
  <outline>
    <contour>
      <point x="586" y="569" type="line" name="hr00"/>
      <point x="469" y="22" type="line" smooth="yes"/>
      <point x="466" y="9"/>
      <point x="474" y="0"/>
      <point x="488" y="0" type="curve" smooth="yes"/>
      <point x="506" y="0" type="line" smooth="yes"/>
      <point x="519" y="0"/>
      <point x="529" y="9"/>
      <point x="532" y="22" type="curve" smooth="yes"/>
      <point x="671" y="677" type="line" smooth="yes"/>
      <point x="674" y="691"/>
      <point x="667" y="700"/>
      <point x="654" y="700" type="curve" smooth="yes"/>
      <point x="633" y="700" type="line" smooth="yes"/>
      <point x="620" y="700"/>
      <point x="612" y="691"/>
      <point x="610" y="688" type="curve" smooth="yes"/>
      <point x="122" y="130" type="line"/>
      <point x="238" y="677" type="line" smooth="yes"/>
      <point x="241" y="691"/>
      <point x="234" y="700"/>
      <point x="221" y="700" type="curve" smooth="yes"/>
      <point x="203" y="700" type="line" smooth="yes"/>
      <point x="189" y="700"/>
      <point x="178" y="691"/>
      <point x="175" y="677" type="curve" smooth="yes"/>
      <point x="36" y="23" type="line" smooth="yes"/>
      <point x="33" y="9"/>
      <point x="41" y="0"/>
      <point x="54" y="0" type="curve" smooth="yes"/>
      <point x="76" y="0" type="line" smooth="yes"/>
      <point x="89" y="0"/>
      <point x="96" y="9"/>
      <point x="99" y="12" type="curve" smooth="yes"/>
    </contour>
    <component base="Breve" xOffset="299"/>
  </outline>
</glyph>
<glyph name="afii10033" format="1">
  <advance width="701"/>
  <unicode hex="041F"/>
  <outline>
    <contour>
      <point x="54" y="0" type="curve" smooth="yes" name="hr00"/>
      <point x="72" y="0" type="line" smooth="yes"/>
      <point x="86" y="0"/>
      <point x="96" y="9"/>
      <point x="99" y="22" type="curve"/>
      <point x="231" y="640" type="line"/>
      <point x="617" y="640" type="line"/>
      <point x="485" y="22" type="line"/>
      <point x="482" y="9"/>
      <point x="490" y="0"/>
      <point x="503" y="0" type="curve"/>
      <point x="521" y="0" type="line"/>
      <point x="535" y="0"/>
      <point x="545" y="9"/>
      <point x="548" y="22" type="curve"/>
      <point x="687" y="677" type="line" smooth="yes"/>
      <point x="690" y="691"/>
      <point x="683" y="700"/>
      <point x="669" y="700" type="curve" smooth="yes"/>
      <point x="202" y="700" type="line" smooth="yes"/>
      <point x="189" y="700"/>
      <point x="178" y="691"/>
      <point x="175" y="677" type="curve" smooth="yes"/>
      <point x="36" y="22" type="line"/>
      <point x="33" y="9"/>
      <point x="41" y="0"/>
    </contour>
  </outline>
</glyph>
<glyph name="afii10041" format="1">
  <advance width="603"/>
  <unicode hex="0427"/>
  <outline>
    <contour>
      <point x="553" y="700" type="line" smooth="yes" name="hr00"/>
      <point x="540" y="700"/>
      <point x="529" y="691"/>
      <point x="527" y="678" type="curve" smooth="yes"/>
      <point x="455" y="342" type="line"/>
      <point x="267" y="342" type="line" smooth="yes"/>
      <point x="147" y="342"/>
      <point x="128" y="379"/>
      <point x="151" y="489" type="curve" smooth="yes"/>
      <point x="192" y="678" type="line" smooth="yes"/>
      <point x="194" y="691"/>
      <point x="187" y="700"/>
      <point x="173" y="700" type="curve" smooth="yes"/>
      <point x="155" y="700" type="line" smooth="yes"/>
      <point x="142" y="700"/>
      <point x="131" y="691"/>
      <point x="129" y="678" type="curve" smooth="yes"/>
      <point x="87" y="484" type="line" smooth="yes"/>
      <point x="58" y="344"/>
      <point x="118" y="282"/>
      <point x="258" y="282" type="curve" smooth="yes"/>
      <point x="442" y="282" type="line"/>
      <point x="387" y="22" type="line" smooth="yes"/>
      <point x="384" y="9"/>
      <point x="392" y="0"/>
      <point x="405" y="0" type="curve" smooth="yes"/>
      <point x="423" y="0" type="line" smooth="yes"/>
      <point x="437" y="0"/>
      <point x="447" y="9"/>
      <point x="450" y="22" type="curve" smooth="yes"/>
      <point x="590" y="678" type="line" smooth="yes"/>
      <point x="592" y="691"/>
      <point x="585" y="700"/>
      <point x="571" y="700" type="curve" smooth="yes"/>
    </contour>
  </outline>
</glyph>
<glyph name="afii10044" format="1">
  <advance width="667"/>
  <unicode hex="042A"/>
  <outline>
    <contour>
      <point x="278" y="677" type="line" smooth="yes" name="hr00"/>
      <point x="281" y="691"/>
      <point x="274" y="700"/>
      <point x="260" y="700" type="curve" smooth="yes"/>
      <point x="122" y="700" type="line" smooth="yes"/>
      <point x="109" y="700"/>
      <point x="98" y="691"/>
      <point x="95" y="677" type="curve" smooth="yes"/>
      <point x="92" y="662" type="line" smooth="yes"/>
      <point x="89" y="649"/>
      <point x="97" y="640"/>
      <point x="110" y="640" type="curve"/>
      <point x="208" y="640" type="line"/>
      <point x="77" y="22" type="line"/>
      <point x="74" y="9"/>
      <point x="82" y="0"/>
      <point x="95" y="0" type="curve"/>
      <point x="369" y="0" type="line"/>
      <point x="525" y="0"/>
      <point x="593" y="115"/>
      <point x="612" y="204" type="curve" smooth="yes"/>
      <point x="637" y="324"/>
      <point x="569" y="403"/>
      <point x="435" y="403" type="curve"/>
      <point x="220" y="403" type="line"/>
    </contour>
    <contour>
      <point x="430" y="343" type="line"/>
      <point x="537" y="343"/>
      <point x="567" y="288"/>
      <point x="549" y="207" type="curve" smooth="yes"/>
      <point x="532" y="127"/>
      <point x="461" y="60"/>
      <point x="362" y="60" type="curve"/>
      <point x="148" y="60" type="line"/>
      <point x="208" y="343" type="line"/>
    </contour>
  </outline>
</glyph>
<glyph name="alefhebrew" format="1">
  <advance width="531"/>
  <unicode hex="05D0"/>
  <outline>
    <contour>
      <point x="356" y="15" type="line" smooth="yes" name="hr00"/>
      <point x="360" y="8"/>
      <point x="365" y="0"/>
      <point x="378" y="0" type="curve" smooth="yes"/>
      <point x="391" y="0" type="line" smooth="yes"/>
      <point x="402" y="0"/>
      <point x="412" y="9"/>
      <point x="415" y="20" type="curve" smooth="yes"/>
      <point x="416" y="25"/>
      <point x="415" y="31"/>
      <point x="411" y="40" type="curve" smooth="yes"/>
      <point x="341" y="188" type="line"/>
      <point x="449" y="247"/>
      <point x="467" y="318"/>
      <point x="485" y="400" type="curve"/>
      <point x="516" y="549" type="line" smooth="yes"/>
      <point x="519" y="562"/>
      <point x="512" y="571"/>
      <point x="499" y="571" type="curve" smooth="yes"/>
      <point x="482" y="571" type="line" smooth="yes"/>
      <point x="469" y="571"/>
      <point x="458" y="562"/>
      <point x="455" y="549" type="curve" smooth="yes"/>
      <point x="425" y="405" type="line" smooth="yes"/>
      <point x="411" y="340"/>
      <point x="392" y="282"/>
      <point x="318" y="238" type="curve"/>
      <point x="169" y="556" type="line" smooth="yes"/>
      <point x="165" y="563"/>
      <point x="160" y="571"/>
      <point x="147" y="571" type="curve" smooth="yes"/>
      <point x="134" y="571" type="line" smooth="yes"/>
      <point x="123" y="571"/>
      <point x="112" y="562"/>
      <point x="110" y="551" type="curve" smooth="yes"/>
      <point x="109" y="546"/>
      <point x="109" y="540"/>
      <point x="113" y="531" type="curve" smooth="yes"/>
      <point x="181" y="387" type="line"/>
      <point x="80" y="328"/>
      <point x="60" y="249"/>
      <point x="44" y="171" type="curve" smooth="yes"/>
      <point x="12" y="22" type="line" smooth="yes"/>
      <point x="9" y="9"/>
      <point x="17" y="0"/>
      <point x="30" y="0" type="curve" smooth="yes"/>
      <point x="47" y="0" type="line" smooth="yes"/>
      <point x="60" y="0"/>
      <point x="70" y="9"/>
      <point x="73" y="22" type="curve" smooth="yes"/>
      <point x="104" y="166" type="line" smooth="yes"/>
      <point x="117" y="227"/>
      <point x="136" y="293"/>
      <point x="204" y="338" type="curve"/>
    </contour>
  </outline>
</glyph>
<glyph name="bethebrew" format="1">
  <advance width="549"/>
  <unicode hex="05D1"/>
  <outline>
    <contour>
      <point x="104" y="549" type="curve" name="hr00"/>
      <point x="101" y="535" type="line" smooth="yes"/>
      <point x="98" y="522"/>
      <point x="106" y="513"/>
      <point x="119" y="513" type="curve" smooth="yes"/>
      <point x="258" y="513" type="line" smooth="yes"/>
      <point x="393" y="513"/>
      <point x="426" y="442"/>
      <point x="401" y="322" type="curve" smooth="yes"/>
      <point x="345" y="58" type="line"/>
      <point x="12" y="58" type="line" smooth="yes"/>
      <point x="-1" y="58"/>
      <point x="-12" y="49"/>
      <point x="-15" y="36" type="curve" smooth="yes"/>
      <point x="-18" y="22" type="line" smooth="yes"/>
      <point x="-21" y="9"/>
      <point x="-13" y="0"/>
      <point x="0" y="0" type="curve" smooth="yes"/>
      <point x="432" y="0" type="line" smooth="yes"/>
      <point x="445" y="0"/>
      <point x="455" y="9"/>
      <point x="458" y="22" type="curve" smooth="yes"/>
      <point x="461" y="36" type="line" smooth="yes"/>
      <point x="464" y="49"/>
      <point x="457" y="58"/>
      <point x="444" y="58" type="curve" smooth="yes"/>
      <point x="406" y="58" type="line"/>
      <point x="463" y="327" type="line" smooth="yes"/>
      <point x="496" y="481"/>
      <point x="431" y="571"/>
      <point x="261" y="571" type="curve" smooth="yes"/>
      <point x="131" y="571" type="line" smooth="yes"/>
      <point x="118" y="571"/>
      <point x="107" y="562"/>
    </contour>
  </outline>
</glyph>
<glyph name="dalethebrew" format="1">
  <advance width="493"/>
  <unicode hex="05D3"/>
  <outline>
    <contour>
      <point x="501" y="513" type="line" smooth="yes" name="hr00"/>
      <point x="514" y="513"/>
      <point x="524" y="522"/>
      <point x="527" y="535" type="curve" smooth="yes"/>
      <point x="530" y="549" type="line" smooth="yes"/>
      <point x="533" y="562"/>
      <point x="526" y="571"/>
      <point x="513" y="571" type="curve" smooth="yes"/>
      <point x="91" y="571" type="line" smooth="yes"/>
      <point x="78" y="571"/>
      <point x="67" y="562"/>
      <point x="64" y="549" type="curve" smooth="yes"/>
      <point x="61" y="535" type="line" smooth="yes"/>
      <point x="58" y="522"/>
      <point x="66" y="513"/>
      <point x="79" y="513" type="curve" smooth="yes"/>
      <point x="343" y="513" type="line"/>
      <point x="238" y="22" type="line" smooth="yes"/>
      <point x="235" y="9"/>
      <point x="243" y="0"/>
      <point x="256" y="0" type="curve" smooth="yes"/>
      <point x="273" y="0" type="line" smooth="yes"/>
      <point x="286" y="0"/>
      <point x="296" y="9"/>
      <point x="299" y="22" type="curve" smooth="yes"/>
      <point x="404" y="513" type="line"/>
    </contour>
  </outline>
</glyph>
<glyph name="hehebrew" format="1">
  <advance width="610"/>
  <unicode hex="05D4"/>
  <outline>
    <contour>
      <point x="139" y="549" type="curve" name="hr00"/>
      <point x="136" y="535" type="line" smooth="yes"/>
      <point x="133" y="522"/>
      <point x="141" y="513"/>
      <point x="154" y="513" type="curve" smooth="yes"/>
      <point x="333" y="513" type="line" smooth="yes"/>
      <point x="468" y="513"/>
      <point x="501" y="442"/>
      <point x="476" y="322" type="curve" smooth="yes"/>
      <point x="412" y="22" type="line" smooth="yes"/>
      <point x="409" y="9"/>
      <point x="417" y="0"/>
      <point x="430" y="0" type="curve" smooth="yes"/>
      <point x="447" y="0" type="line" smooth="yes"/>
      <point x="460" y="0"/>
      <point x="470" y="9"/>
      <point x="473" y="22" type="curve" smooth="yes"/>
      <point x="538" y="327" type="line" smooth="yes"/>
      <point x="571" y="482"/>
      <point x="506" y="571"/>
      <point x="336" y="571" type="curve" smooth="yes"/>
      <point x="166" y="571" type="line" smooth="yes"/>
      <point x="153" y="571"/>
      <point x="142" y="562"/>
    </contour>
    <contour>
      <point x="177" y="441" type="line" smooth="yes"/>
      <point x="180" y="454"/>
      <point x="173" y="463"/>
      <point x="160" y="463" type="curve" smooth="yes"/>
      <point x="143" y="463" type="line" smooth="yes"/>
      <point x="130" y="463"/>
      <point x="119" y="454"/>
      <point x="116" y="441" type="curve" smooth="yes"/>
      <point x="27" y="22" type="line" smooth="yes"/>
      <point x="24" y="9"/>
      <point x="32" y="0"/>
      <point x="45" y="0" type="curve" smooth="yes"/>
      <point x="62" y="0" type="line" smooth="yes"/>
      <point x="75" y="0"/>
      <point x="85" y="9"/>
      <point x="88" y="22" type="curve" smooth="yes"/>
    </contour>
  </outline>
</glyph>
<glyph name="vavhebrew" format="1">
  <advance width="231"/>
  <unicode hex="05D5"/>
  <outline>
    <contour>
      <point x="200" y="549" type="line" name="hr00"/>
      <point x="203" y="562"/>
      <point x="196" y="571"/>
      <point x="183" y="571" type="curve" smooth="yes"/>
      <point x="166" y="571" type="line" smooth="yes"/>
      <point x="153" y="571"/>
      <point x="142" y="562"/>
      <point x="139" y="549" type="curve" smooth="yes"/>
      <point x="27" y="22" type="line" smooth="yes"/>
      <point x="24" y="9"/>
      <point x="32" y="0"/>
      <point x="45" y="0" type="curve" smooth="yes"/>
      <point x="62" y="0" type="line" smooth="yes"/>
      <point x="75" y="0"/>
      <point x="85" y="9"/>
      <point x="88" y="22" type="curve" smooth="yes"/>
    </contour>
  </outline>
</glyph>
<glyph name="zayinhebrew" format="1">
  <advance width="444"/>
  <unicode hex="05D6"/>
  <outline>
    <contour>
      <point x="250" y="22" type="curve" name="hr00"/>
      <point x="332" y="405" type="line" smooth="yes"/>
      <point x="342" y="454"/>
      <point x="374" y="513"/>
      <point x="439" y="513" type="curve" smooth="yes"/>
      <point x="452" y="513" type="line" smooth="yes"/>
      <point x="465" y="513"/>
      <point x="475" y="522"/>
      <point x="478" y="535" type="curve" smooth="yes"/>
      <point x="481" y="549" type="line" smooth="yes"/>
      <point x="484" y="562"/>
      <point x="477" y="571"/>
      <point x="464" y="571" type="curve" smooth="yes"/>
      <point x="92" y="571" type="line" smooth="yes"/>
      <point x="79" y="571"/>
      <point x="68" y="562"/>
      <point x="65" y="549" type="curve" smooth="yes"/>
      <point x="62" y="535" type="line" smooth="yes"/>
      <point x="59" y="522"/>
      <point x="67" y="513"/>
      <point x="80" y="513" type="curve" smooth="yes"/>
      <point x="325" y="513" type="line"/>
      <point x="296" y="488"/>
      <point x="281" y="454"/>
      <point x="272" y="410" type="curve" smooth="yes"/>
      <point x="189" y="22" type="line" smooth="yes"/>
      <point x="186" y="9"/>
      <point x="194" y="0"/>
      <point x="207" y="0" type="curve" smooth="yes"/>
      <point x="224" y="0" type="line" smooth="yes"/>
      <point x="237" y="0"/>
      <point x="247" y="9"/>
    </contour>
  </outline>
</glyph>
<glyph name="hethebrew" format="1">
  <advance width="611"/>
  <unicode hex="05D7"/>
  <outline>
    <contour>
      <point x="139" y="549" type="curve" name="hr00"/>
      <point x="27" y="22" type="line" smooth="yes"/>
      <point x="24" y="9"/>
      <point x="32" y="0"/>
      <point x="45" y="0" type="curve" smooth="yes"/>
      <point x="62" y="0" type="line" smooth="yes"/>
      <point x="75" y="0"/>
      <point x="85" y="9"/>
      <point x="88" y="22" type="curve" smooth="yes"/>
      <point x="193" y="513" type="line"/>
      <point x="334" y="513" type="line" smooth="yes"/>
      <point x="469" y="513"/>
      <point x="502" y="442"/>
      <point x="477" y="322" type="curve" smooth="yes"/>
      <point x="413" y="22" type="line" smooth="yes"/>
      <point x="410" y="9"/>
      <point x="418" y="0"/>
      <point x="431" y="0" type="curve" smooth="yes"/>
      <point x="448" y="0" type="line" smooth="yes"/>
      <point x="461" y="0"/>
      <point x="471" y="9"/>
      <point x="474" y="22" type="curve" smooth="yes"/>
      <point x="539" y="327" type="line" smooth="yes"/>
      <point x="572" y="482"/>
      <point x="507" y="571"/>
      <point x="337" y="571" type="curve" smooth="yes"/>
      <point x="166" y="571" type="line" smooth="yes"/>
      <point x="153" y="571"/>
      <point x="142" y="562"/>
    </contour>
  </outline>
</glyph>
<glyph name="yodhebrew" format="1">
  <advance width="216"/>
  <unicode hex="05D9"/>
  <outline>
    <contour>
      <point x="192" y="549" type="line" name="hr00"/>
      <point x="195" y="562"/>
      <point x="188" y="571"/>
      <point x="175" y="571" type="curve" smooth="yes"/>
      <point x="158" y="571" type="line" smooth="yes"/>
      <point x="145" y="571"/>
      <point x="134" y="562"/>
      <point x="131" y="549" type="curve" smooth="yes"/>
      <point x="70" y="262" type="line" smooth="yes"/>
      <point x="67" y="249"/>
      <point x="75" y="240"/>
      <point x="88" y="240" type="curve" smooth="yes"/>
      <point x="105" y="240" type="line" smooth="yes"/>
      <point x="118" y="240"/>
      <point x="128" y="249"/>
      <point x="131" y="262" type="curve" smooth="yes"/>
    </contour>
  </outline>
</glyph>
<glyph name="finalkafhebrew" format="1">
  <advance width="495"/>
  <unicode hex="05DA"/>
  <outline>
    <contour>
      <point x="531" y="549" type="curve" name="hr00"/>
      <point x="528" y="535" type="line" smooth="yes"/>
      <point x="525" y="522"/>
      <point x="515" y="513"/>
      <point x="502" y="513" type="curve" smooth="yes"/>
      <point x="410" y="513" type="line"/>
      <point x="279" y="-102" type="line" smooth="yes"/>
      <point x="276" y="-115"/>
      <point x="265" y="-124"/>
      <point x="252" y="-124" type="curve" smooth="yes"/>
      <point x="235" y="-124" type="line" smooth="yes"/>
      <point x="222" y="-124"/>
      <point x="215" y="-115"/>
      <point x="218" y="-102" type="curve" smooth="yes"/>
      <point x="349" y="513" type="line"/>
      <point x="80" y="513" type="line" smooth="yes"/>
      <point x="67" y="513"/>
      <point x="59" y="522"/>
      <point x="62" y="535" type="curve" smooth="yes"/>
      <point x="65" y="549" type="line" smooth="yes"/>
      <point x="68" y="562"/>
      <point x="79" y="571"/>
      <point x="92" y="571" type="curve" smooth="yes"/>
      <point x="514" y="571" type="line" smooth="yes"/>
      <point x="527" y="571"/>
      <point x="534" y="562"/>
    </contour>
  </outline>
</glyph>
<glyph name="memhebrew" format="1">
  <advance width="654"/>
  <unicode hex="05DE"/>
  <outline>
    <contour>
      <point x="46" y="15" type="curve" name="hr00"/>
      <point x="352" y="513" type="line"/>
      <point x="370" y="513" type="line" smooth="yes"/>
      <point x="505" y="513"/>
      <point x="545" y="442"/>
      <point x="520" y="322" type="curve" smooth="yes"/>
      <point x="464" y="58" type="line"/>
      <point x="406" y="58" type="line" smooth="yes"/>
      <point x="393" y="58"/>
      <point x="382" y="49"/>
      <point x="379" y="36" type="curve" smooth="yes"/>
      <point x="376" y="22" type="line" smooth="yes"/>
      <point x="373" y="9"/>
      <point x="381" y="0"/>
      <point x="394" y="0" type="curve" smooth="yes"/>
      <point x="491" y="0" type="line" smooth="yes"/>
      <point x="504" y="0"/>
      <point x="514" y="9"/>
      <point x="517" y="22" type="curve" smooth="yes"/>
      <point x="582" y="327" type="line" smooth="yes"/>
      <point x="615" y="482"/>
      <point x="557" y="571"/>
      <point x="387" y="571" type="curve" smooth="yes"/>
      <point x="130" y="571" type="line" smooth="yes"/>
      <point x="117" y="571"/>
      <point x="106" y="562"/>
      <point x="103" y="549" type="curve" smooth="yes"/>
      <point x="100" y="535" type="line" smooth="yes"/>
      <point x="97" y="522"/>
      <point x="105" y="513"/>
      <point x="118" y="513" type="curve" smooth="yes"/>
      <point x="282" y="513" type="line"/>
      <point x="-9" y="40" type="line" smooth="yes"/>
      <point x="-15" y="30"/>
      <point x="-18" y="25"/>
      <point x="-19" y="20" type="curve"/>
      <point x="-22" y="9"/>
      <point x="-14" y="0"/>
      <point x="-3" y="0" type="curve" smooth="yes"/>
      <point x="20" y="0" type="line" smooth="yes"/>
      <point x="33" y="0"/>
      <point x="41" y="7"/>
    </contour>
  </outline>
</glyph>
<glyph name="finalnunhebrew" format="1">
  <advance width="232"/>
  <unicode hex="05DF"/>
  <outline>
    <contour>
      <point x="62" y="-102" type="curve" name="hr00"/>
      <point x="200" y="549" type="line" smooth="yes"/>
      <point x="203" y="562"/>
      <point x="196" y="571"/>
      <point x="183" y="571" type="curve" smooth="yes"/>
      <point x="166" y="571" type="line" smooth="yes"/>
      <point x="153" y="571"/>
      <point x="142" y="562"/>
      <point x="139" y="549" type="curve" smooth="yes"/>
      <point x="1" y="-102" type="line" smooth="yes"/>
      <point x="-2" y="-115"/>
      <point x="5" y="-124"/>
      <point x="18" y="-124" type="curve" smooth="yes"/>
      <point x="35" y="-124" type="line" smooth="yes"/>
      <point x="48" y="-124"/>
      <point x="59" y="-115"/>
    </contour>
  </outline>
</glyph>
<glyph name="nunhebrew" format="1">
  <advance width="435"/>
  <unicode hex="05E0"/>
  <outline>
    <contour>
      <point x="105" y="559" type="curve" name="hr00"/>
      <point x="102" y="545" type="line" smooth="yes"/>
      <point x="100" y="532"/>
      <point x="107" y="523"/>
      <point x="120" y="523" type="curve" smooth="yes"/>
      <point x="159" y="523" type="line" smooth="yes"/>
      <point x="293" y="523"/>
      <point x="330" y="462"/>
      <point x="302" y="332" type="curve" smooth="yes"/>
      <point x="244" y="58" type="line"/>
      <point x="11" y="58" type="line" smooth="yes"/>
      <point x="-2" y="58"/>
      <point x="-13" y="49"/>
      <point x="-16" y="36" type="curve" smooth="yes"/>
      <point x="-19" y="22" type="line" smooth="yes"/>
      <point x="-22" y="9"/>
      <point x="-14" y="0"/>
      <point x="-1" y="0" type="curve" smooth="yes"/>
      <point x="271" y="0" type="line" smooth="yes"/>
      <point x="284" y="0"/>
      <point x="294" y="9"/>
      <point x="297" y="22" type="curve" smooth="yes"/>
      <point x="364" y="337" type="line" smooth="yes"/>
      <point x="395" y="482"/>
      <point x="346" y="581"/>
      <point x="161" y="581" type="curve" smooth="yes"/>
      <point x="132" y="581" type="line" smooth="yes"/>
      <point x="119" y="581"/>
      <point x="108" y="572"/>
    </contour>
  </outline>
</glyph>
<glyph name="ayinhebrew" format="1">
  <advance width="618"/>
  <unicode hex="05E2"/>
  <outline>
    <contour>
      <point x="173" y="556" type="line" name="hr00"/>
      <point x="171" y="564"/>
      <point x="166" y="571"/>
      <point x="153" y="571" type="curve" smooth="yes"/>
      <point x="132" y="571" type="line" smooth="yes"/>
      <point x="109" y="571"/>
      <point x="105" y="558"/>
      <point x="107" y="543" type="curve" smooth="yes"/>
      <point x="170" y="58" type="line"/>
      <point x="9" y="58" type="line" smooth="yes"/>
      <point x="-4" y="58"/>
      <point x="-15" y="49"/>
      <point x="-18" y="36" type="curve" smooth="yes"/>
      <point x="-21" y="22" type="line" smooth="yes"/>
      <point x="-24" y="9"/>
      <point x="-16" y="0"/>
      <point x="-3" y="0" type="curve" smooth="yes"/>
      <point x="225" y="0" type="line" smooth="yes"/>
      <point x="400" y="0"/>
      <point x="495" y="89"/>
      <point x="528" y="244" type="curve" smooth="yes"/>
      <point x="593" y="549" type="line" smooth="yes"/>
      <point x="596" y="562"/>
      <point x="586" y="571"/>
      <point x="573" y="571" type="curve" smooth="yes"/>
      <point x="556" y="571" type="line" smooth="yes"/>
      <point x="543" y="571"/>
      <point x="535" y="562"/>
      <point x="532" y="549" type="curve" smooth="yes"/>
      <point x="468" y="249" type="line" smooth="yes"/>
      <point x="443" y="129"/>
      <point x="372" y="58"/>
      <point x="237" y="58" type="curve"/>
    </contour>
  </outline>
</glyph>
<glyph name="pehebrew" format="1">
  <advance width="635"/>
  <unicode hex="05E4"/>
  <outline>
    <contour>
      <point x="583" y="327" type="curve" smooth="yes" name="hr00"/>
      <point x="612" y="482"/>
      <point x="551" y="571"/>
      <point x="381" y="571" type="curve"/>
      <point x="140" y="571" type="line"/>
      <point x="127" y="571"/>
      <point x="116" y="562"/>
      <point x="113" y="549" type="curve"/>
      <point x="91" y="444" type="line"/>
      <point x="67" y="330"/>
      <point x="122" y="260"/>
      <point x="246" y="260" type="curve"/>
      <point x="316" y="260" type="line"/>
      <point x="329" y="260"/>
      <point x="340" y="269"/>
      <point x="342" y="282" type="curve"/>
      <point x="345" y="296" type="line"/>
      <point x="348" y="309"/>
      <point x="341" y="318"/>
      <point x="328" y="318" type="curve"/>
      <point x="249" y="318" type="line"/>
      <point x="154" y="318"/>
      <point x="136" y="369"/>
      <point x="153" y="449" type="curve"/>
      <point x="167" y="513" type="line"/>
      <point x="378" y="513" type="line"/>
      <point x="513" y="513"/>
      <point x="543" y="442"/>
      <point x="521" y="322" type="curve" smooth="yes"/>
      <point x="518" y="302"/>
      <point x="511" y="269"/>
      <point x="505" y="249" type="curve" smooth="yes"/>
      <point x="475" y="129"/>
      <point x="421" y="58"/>
      <point x="274" y="58" type="curve"/>
      <point x="31" y="58" type="line"/>
      <point x="18" y="58"/>
      <point x="7" y="49"/>
      <point x="4" y="36" type="curve"/>
      <point x="1" y="22" type="line"/>
      <point x="-2" y="9"/>
      <point x="6" y="0"/>
      <point x="19" y="0" type="curve"/>
      <point x="274" y="0" type="line"/>
      <point x="453" y="0"/>
      <point x="528" y="89"/>
      <point x="565" y="244" type="curve" smooth="yes"/>
      <point x="571" y="264"/>
      <point x="580" y="307"/>
    </contour>
  </outline>
</glyph>
<glyph name="finaltsadihebrew" format="1">
  <advance width="470"/>
  <unicode hex="05E5"/>
  <outline>
    <contour>
      <point x="201" y="-105" type="line" smooth="yes" name="hr00"/>
      <point x="203" y="-117"/>
      <point x="212" y="-124"/>
      <point x="225" y="-124" type="curve" smooth="yes"/>
      <point x="241" y="-124" type="line" smooth="yes"/>
      <point x="263" y="-124"/>
      <point x="266" y="-111"/>
      <point x="262" y="-91" type="curve" smooth="yes"/>
      <point x="206" y="206" type="line"/>
      <point x="341" y="224"/>
      <point x="428" y="309"/>
      <point x="458" y="447" type="curve"/>
      <point x="479" y="549" type="line" smooth="yes"/>
      <point x="482" y="562"/>
      <point x="475" y="571"/>
      <point x="462" y="571" type="curve" smooth="yes"/>
      <point x="445" y="571" type="line" smooth="yes"/>
      <point x="432" y="571"/>
      <point x="421" y="562"/>
      <point x="418" y="549" type="curve" smooth="yes"/>
      <point x="398" y="452" type="line" smooth="yes"/>
      <point x="374" y="341"/>
      <point x="311" y="272"/>
      <point x="195" y="262" type="curve"/>
      <point x="143" y="547" type="line"/>
      <point x="140" y="564"/>
      <point x="132" y="571"/>
      <point x="119" y="571" type="curve" smooth="yes"/>
      <point x="106" y="571" type="line" smooth="yes"/>
      <point x="84" y="571"/>
      <point x="81" y="557"/>
      <point x="84" y="539" type="curve" smooth="yes"/>
    </contour>
  </outline>
</glyph>
<glyph name="qofhebrew" format="1">
  <advance width="611"/>
  <unicode hex="05E7"/>
  <outline>
    <contour>
      <point x="154" y="513" type="curve" name="hr00"/>
      <point x="517" y="513" type="line"/>
      <point x="446" y="179" type="line" smooth="yes"/>
      <point x="429" y="99"/>
      <point x="382" y="48"/>
      <point x="287" y="48" type="curve" smooth="yes"/>
      <point x="265" y="48" type="line" smooth="yes"/>
      <point x="252" y="48"/>
      <point x="241" y="39"/>
      <point x="238" y="26" type="curve" smooth="yes"/>
      <point x="235" y="12" type="line" smooth="yes"/>
      <point x="232" y="-1"/>
      <point x="239" y="-10"/>
      <point x="252" y="-10" type="curve" smooth="yes"/>
      <point x="287" y="-10" type="line" smooth="yes"/>
      <point x="415" y="-10"/>
      <point x="481" y="60"/>
      <point x="505" y="174" type="curve" smooth="yes"/>
      <point x="585" y="549" type="line" smooth="yes"/>
      <point x="588" y="562"/>
      <point x="581" y="571"/>
      <point x="568" y="571" type="curve" smooth="yes"/>
      <point x="166" y="571" type="line" smooth="yes"/>
      <point x="153" y="571"/>
      <point x="142" y="562"/>
      <point x="139" y="549" type="curve" smooth="yes"/>
      <point x="136" y="535" type="line" smooth="yes"/>
      <point x="133" y="522"/>
      <point x="141" y="513"/>
    </contour>
    <contour>
      <point x="48" y="-169" type="curve"/>
      <point x="177" y="441" type="line" smooth="yes"/>
      <point x="180" y="454"/>
      <point x="173" y="463"/>
      <point x="160" y="463" type="curve" smooth="yes"/>
      <point x="143" y="463" type="line" smooth="yes"/>
      <point x="130" y="463"/>
      <point x="119" y="454"/>
      <point x="116" y="441" type="curve" smooth="yes"/>
      <point x="-13" y="-169" type="line" smooth="yes"/>
      <point x="-16" y="-182"/>
      <point x="-9" y="-191"/>
      <point x="4" y="-191" type="curve" smooth="yes"/>
      <point x="21" y="-191" type="line" smooth="yes"/>
      <point x="34" y="-191"/>
      <point x="45" y="-182"/>
    </contour>
  </outline>
</glyph>
<glyph name="reshhebrew" format="1">
  <advance width="481"/>
  <unicode hex="05E8"/>
  <outline>
    <contour>
      <point x="57" y="535" type="line" smooth="yes" name="hr00"/>
      <point x="54" y="522"/>
      <point x="62" y="513"/>
      <point x="75" y="513" type="curve" smooth="yes"/>
      <point x="204" y="513" type="line" smooth="yes"/>
      <point x="339" y="513"/>
      <point x="372" y="442"/>
      <point x="347" y="322" type="curve" smooth="yes"/>
      <point x="283" y="22" type="line" smooth="yes"/>
      <point x="280" y="9"/>
      <point x="288" y="0"/>
      <point x="301" y="0" type="curve" smooth="yes"/>
      <point x="318" y="0" type="line" smooth="yes"/>
      <point x="331" y="0"/>
      <point x="341" y="9"/>
      <point x="344" y="22" type="curve" smooth="yes"/>
      <point x="409" y="327" type="line" smooth="yes"/>
      <point x="442" y="482"/>
      <point x="377" y="571"/>
      <point x="207" y="571" type="curve" smooth="yes"/>
      <point x="87" y="571" type="line" smooth="yes"/>
      <point x="74" y="571"/>
      <point x="63" y="562"/>
      <point x="60" y="549" type="curve" smooth="yes"/>
    </contour>
  </outline>
</glyph>
<glyph name="approxequal" format="1">
  <advance width="564"/>
  <unicode hex="2248"/>
  <outline>
    <contour>
      <point x="401" y="377" type="curve" smooth="yes"/>
      <point x="457" y="377"/>
      <point x="511" y="407"/>
      <point x="516" y="432" type="curve" smooth="yes"/>
      <point x="521" y="455" type="line" smooth="yes"/>
      <point x="523" y="465"/>
      <point x="518" y="472"/>
      <point x="508" y="472" type="curve" smooth="yes" name="hr01"/>
      <point x="489" y="472"/>
      <point x="453" y="437"/>
      <point x="401" y="437" type="curve" smooth="yes" name="hr02"/>
      <point x="329" y="437"/>
      <point x="302" y="472"/>
      <point x="218" y="472" type="curve" smooth="yes" name="hr03"/>
      <point x="162" y="472"/>
      <point x="108" y="442"/>
      <point x="103" y="417" type="curve" smooth="yes"/>
      <point x="98" y="394" type="line" smooth="yes"/>
      <point x="96" y="384"/>
      <point x="102" y="377"/>
      <point x="112" y="377" type="curve" smooth="yes" name="hr04"/>
      <point x="131" y="377"/>
      <point x="165" y="412"/>
      <point x="217" y="412" type="curve" smooth="yes" name="hr05"/>
      <point x="292" y="412"/>
      <point x="321" y="377"/>
    </contour>
    <contour>
      <point x="348" y="127" type="curve" smooth="yes"/>
      <point x="404" y="127"/>
      <point x="458" y="157"/>
      <point x="463" y="182" type="curve" smooth="yes"/>
      <point x="468" y="205" type="line" smooth="yes"/>
      <point x="470" y="215"/>
      <point x="465" y="222"/>
      <point x="455" y="222" type="curve" smooth="yes" name="hr07"/>
      <point x="436" y="222"/>
      <point x="400" y="187"/>
      <point x="348" y="187" type="curve" smooth="yes" name="hr08"/>
      <point x="276" y="187"/>
      <point x="249" y="222"/>
      <point x="165" y="222" type="curve" smooth="yes" name="hr09"/>
      <point x="109" y="222"/>
      <point x="55" y="192"/>
      <point x="50" y="167" type="curve" smooth="yes"/>
      <point x="45" y="144" type="line" smooth="yes"/>
      <point x="43" y="134"/>
      <point x="49" y="127"/>
      <point x="59" y="127" type="curve" smooth="yes" name="hr10"/>
      <point x="78" y="127"/>
      <point x="112" y="162"/>
      <point x="164" y="162" type="curve" smooth="yes" name="hr11"/>
      <point x="239" y="162"/>
      <point x="268" y="127"/>
    </contour>
  </outline>
</glyph>
<glyph name="shinshindothebrew" format="1">
  <advance width="710"/>
  <unicode hex="FB2A"/>
  <outline>
    <contour>
      <point x="715" y="678" type="line" smooth="yes" name="hr00"/>
      <point x="717" y="691"/>
      <point x="710" y="700"/>
      <point x="697" y="700" type="curve" smooth="yes"/>
      <point x="674" y="700" type="line" smooth="yes"/>
      <point x="661" y="700"/>
      <point x="650" y="691"/>
      <point x="648" y="678" type="curve" smooth="yes"/>
      <point x="643" y="655" type="line" smooth="yes"/>
      <point x="640" y="642"/>
      <point x="647" y="633"/>
      <point x="660" y="633" type="curve" smooth="yes"/>
      <point x="683" y="633" type="line" smooth="yes"/>
      <point x="696" y="633"/>
      <point x="707" y="642"/>
      <point x="710" y="655" type="curve" smooth="yes"/>
    </contour>
    <component base="shinhebrew"/>
  </outline>
</glyph>
<glyph name="shinsindothebrew" format="1">
  <advance width="710"/>
  <unicode hex="FB2B"/>
  <outline>
    <contour>
      <point x="227" y="678" type="line" smooth="yes" name="hr00"/>
      <point x="229" y="691"/>
      <point x="222" y="700"/>
      <point x="209" y="700" type="curve" smooth="yes"/>
      <point x="186" y="700" type="line" smooth="yes"/>
      <point x="173" y="700"/>
      <point x="162" y="691"/>
      <point x="160" y="678" type="curve" smooth="yes"/>
      <point x="155" y="655" type="line" smooth="yes"/>
      <point x="152" y="642"/>
      <point x="159" y="633"/>
      <point x="172" y="633" type="curve" smooth="yes"/>
      <point x="195" y="633" type="line" smooth="yes"/>
      <point x="208" y="633"/>
      <point x="219" y="642"/>
      <point x="222" y="655" type="curve" smooth="yes"/>
    </contour>
    <component base="shinhebrew"/>
  </outline>
</glyph>
<glyph name="daletdageshhebrew" format="1">
  <advance width="493"/>
  <unicode hex="FB33"/>
  <outline>
    <contour>
      <point x="195" y="296" type="line" smooth="yes" name="hr00"/>
      <point x="198" y="309"/>
      <point x="191" y="318"/>
      <point x="178" y="318" type="curve" smooth="yes"/>
      <point x="155" y="318" type="line" smooth="yes"/>
      <point x="142" y="318"/>
      <point x="131" y="309"/>
      <point x="128" y="296" type="curve" smooth="yes"/>
      <point x="124" y="273" type="line" smooth="yes"/>
      <point x="121" y="260"/>
      <point x="128" y="251"/>
      <point x="141" y="251" type="curve" smooth="yes"/>
      <point x="164" y="251" type="line" smooth="yes"/>
      <point x="177" y="251"/>
      <point x="188" y="260"/>
      <point x="191" y="273" type="curve" smooth="yes"/>
    </contour>
    <component base="dalethebrew"/>
  </outline>
</glyph>
<glyph name="hedageshhebrew" format="1">
  <advance width="607"/>
  <unicode hex="FB34"/>
  <outline>
    <contour>
      <point x="337" y="296" type="line" smooth="yes" name="hr00"/>
      <point x="340" y="309"/>
      <point x="333" y="318"/>
      <point x="320" y="318" type="curve" smooth="yes"/>
      <point x="297" y="318" type="line" smooth="yes"/>
      <point x="284" y="318"/>
      <point x="273" y="309"/>
      <point x="270" y="296" type="curve" smooth="yes"/>
      <point x="266" y="273" type="line" smooth="yes"/>
      <point x="263" y="260"/>
      <point x="270" y="251"/>
      <point x="283" y="251" type="curve" smooth="yes"/>
      <point x="306" y="251" type="line" smooth="yes"/>
      <point x="319" y="251"/>
      <point x="330" y="260"/>
      <point x="333" y="273" type="curve" smooth="yes"/>
    </contour>
    <component base="hehebrew" xOffset="-3"/>
  </outline>
</glyph>
<glyph name="lameddageshhebrew" format="1">
  <advance width="507"/>
  <unicode hex="FB3C"/>
  <outline>
    <contour>
      <point x="163" y="296" type="line" smooth="yes" name="hr00"/>
      <point x="166" y="309"/>
      <point x="159" y="318"/>
      <point x="146" y="318" type="curve" smooth="yes"/>
      <point x="123" y="318" type="line" smooth="yes"/>
      <point x="110" y="318"/>
      <point x="99" y="309"/>
      <point x="96" y="296" type="curve" smooth="yes"/>
      <point x="92" y="273" type="line" smooth="yes"/>
      <point x="89" y="260"/>
      <point x="96" y="251"/>
      <point x="109" y="251" type="curve" smooth="yes"/>
      <point x="132" y="251" type="line" smooth="yes"/>
      <point x="145" y="251"/>
      <point x="156" y="260"/>
      <point x="159" y="273" type="curve" smooth="yes"/>
    </contour>
    <component base="lamedhebrew"/>
  </outline>
</glyph>
<glyph name="memdageshhebrew" format="1">
  <advance width="654"/>
  <unicode hex="FB3E"/>
  <outline>
    <contour>
      <point x="394" y="296" type="line" smooth="yes" name="hr00"/>
      <point x="397" y="309"/>
      <point x="390" y="318"/>
      <point x="377" y="318" type="curve" smooth="yes"/>
      <point x="354" y="318" type="line" smooth="yes"/>
      <point x="341" y="318"/>
      <point x="330" y="309"/>
      <point x="327" y="296" type="curve" smooth="yes"/>
      <point x="323" y="273" type="line" smooth="yes"/>
      <point x="320" y="260"/>
      <point x="327" y="251"/>
      <point x="340" y="251" type="curve" smooth="yes"/>
      <point x="363" y="251" type="line" smooth="yes"/>
      <point x="376" y="251"/>
      <point x="387" y="260"/>
      <point x="390" y="273" type="curve" smooth="yes"/>
    </contour>
    <component base="memhebrew"/>
  </outline>
</glyph>
<glyph name="qofdageshhebrew" format="1">
  <advance width="611"/>
  <unicode hex="FB47"/>
  <outline>
    <contour>
      <point x="344" y="296" type="line" smooth="yes" name="hr00"/>
      <point x="347" y="309"/>
      <point x="340" y="318"/>
      <point x="327" y="318" type="curve" smooth="yes"/>
      <point x="304" y="318" type="line" smooth="yes"/>
      <point x="291" y="318"/>
      <point x="280" y="309"/>
      <point x="277" y="296" type="curve" smooth="yes"/>
      <point x="273" y="273" type="line" smooth="yes"/>
      <point x="270" y="260"/>
      <point x="277" y="251"/>
      <point x="290" y="251" type="curve" smooth="yes"/>
      <point x="313" y="251" type="line" smooth="yes"/>
      <point x="326" y="251"/>
      <point x="337" y="260"/>
      <point x="340" y="273" type="curve" smooth="yes"/>
    </contour>
    <component base="qofhebrew"/>
  </outline>
</glyph>
<glyph name="tavdageshhebrew" format="1">
  <advance width="648"/>
  <unicode hex="FB4A"/>
  <outline>
    <contour>
      <point x="335" y="318" type="line" smooth="yes" name="hr00"/>
      <point x="322" y="318"/>
      <point x="311" y="309"/>
      <point x="308" y="296" type="curve" smooth="yes"/>
      <point x="304" y="273" type="line" smooth="yes"/>
      <point x="301" y="260"/>
      <point x="308" y="251"/>
      <point x="321" y="251" type="curve" smooth="yes"/>
      <point x="344" y="251" type="line" smooth="yes"/>
      <point x="357" y="251"/>
      <point x="368" y="260"/>
      <point x="371" y="273" type="curve" smooth="yes"/>
      <point x="375" y="296" type="line" smooth="yes"/>
      <point x="378" y="309"/>
      <point x="371" y="318"/>
      <point x="358" y="318" type="curve" smooth="yes"/>
    </contour>
    <component base="tavhebrew"/>
  </outline>
</glyph>
<glyph name="approxequal.cap" format="1">
  <advance width="565"/>
  <outline>
    <contour>
      <point x="412" y="428" type="curve" smooth="yes"/>
      <point x="468" y="428"/>
      <point x="522" y="458"/>
      <point x="527" y="483" type="curve" smooth="yes"/>
      <point x="532" y="506" type="line" smooth="yes"/>
      <point x="534" y="516"/>
      <point x="529" y="523"/>
      <point x="519" y="523" type="curve" smooth="yes" name="hr01"/>
      <point x="500" y="523"/>
      <point x="464" y="488"/>
      <point x="412" y="488" type="curve" smooth="yes" name="hr02"/>
      <point x="340" y="488"/>
      <point x="313" y="523"/>
      <point x="229" y="523" type="curve" smooth="yes" name="hr03"/>
      <point x="173" y="523"/>
      <point x="119" y="493"/>
      <point x="114" y="468" type="curve" smooth="yes"/>
      <point x="109" y="445" type="line" smooth="yes"/>
      <point x="107" y="435"/>
      <point x="113" y="428"/>
      <point x="123" y="428" type="curve" smooth="yes" name="hr04"/>
      <point x="142" y="428"/>
      <point x="176" y="463"/>
      <point x="228" y="463" type="curve" smooth="yes" name="hr05"/>
      <point x="303" y="463"/>
      <point x="332" y="428"/>
    </contour>
    <contour>
      <point x="359" y="178" type="curve" smooth="yes"/>
      <point x="415" y="178"/>
      <point x="469" y="208"/>
      <point x="474" y="233" type="curve" smooth="yes"/>
      <point x="479" y="256" type="line" smooth="yes"/>
      <point x="481" y="266"/>
      <point x="476" y="273"/>
      <point x="466" y="273" type="curve" smooth="yes" name="hr07"/>
      <point x="447" y="273"/>
      <point x="411" y="238"/>
      <point x="359" y="238" type="curve" smooth="yes" name="hr08"/>
      <point x="287" y="238"/>
      <point x="260" y="273"/>
      <point x="176" y="273" type="curve" smooth="yes" name="hr09"/>
      <point x="120" y="273"/>
      <point x="66" y="243"/>
      <point x="61" y="218" type="curve" smooth="yes"/>
      <point x="56" y="195" type="line" smooth="yes"/>
      <point x="54" y="185"/>
      <point x="60" y="178"/>
      <point x="70" y="178" type="curve" smooth="yes" name="hr10"/>
      <point x="89" y="178"/>
      <point x="123" y="213"/>
      <point x="175" y="213" type="curve" smooth="yes" name="hr11"/>
      <point x="250" y="213"/>
      <point x="279" y="178"/>
    </contour>
  </outline>
</glyph>
